<svg width="139" height="50" viewBox="0 0 139 50" fill="none" xmlns="http://www.w3.org/2000/svg">
<path d="M43.7914 34.3505C40.3272 41.5767 32.9421 46.5794 24.4156 46.5794C12.5738 46.5794 2.93559 36.9412 2.93559 25.1093C2.93559 13.2774 12.5738 3.6193 24.4156 3.6193C32.9124 3.6193 40.2775 8.58235 43.7616 15.7688C44.6748 15.9872 45.5284 16.3445 46.3225 16.8111C42.9675 7.97685 34.4112 1.68372 24.4156 1.68372C11.5018 1.68372 1 12.1855 1 25.0994C1 38.0132 11.5018 48.515 24.4156 48.515C34.441 48.515 43.0171 42.1821 46.3424 33.2983C45.5582 33.7648 44.6946 34.1222 43.7914 34.3505Z" fill="#255FFF"/>
<path d="M39.0859 34.3306C36.0187 39.1943 30.5892 42.4402 24.4151 42.4402C14.8563 42.4402 7.08418 34.6581 7.08418 25.1092C7.08418 15.5603 14.8563 7.76836 24.4151 7.76836C30.5594 7.76836 35.9691 10.9844 39.0462 15.8184C39.7112 15.6397 40.4061 15.5405 41.1307 15.5107C37.7955 9.7238 31.552 5.83277 24.4151 5.83277C13.7843 5.82285 5.13867 14.4685 5.13867 25.0993C5.13867 35.7301 13.7843 44.3758 24.4151 44.3758C31.5818 44.3758 37.8451 40.445 41.1604 34.6283C40.4458 34.6085 39.741 34.4993 39.076 34.3306" fill="#779DD8"/>
<path d="M35.3729 32.4347C33.0005 35.9683 28.9705 38.291 24.4145 38.291C17.1386 38.291 11.2227 32.3751 11.2227 25.0993C11.2227 17.8235 17.1386 11.9075 24.4145 11.9075C28.9606 11.9075 32.9708 14.2203 35.353 17.7242C35.8493 17.3073 36.3853 16.95 36.961 16.6423C34.2413 12.6222 29.6356 9.97192 24.4244 9.97192C16.0766 9.97192 9.28711 16.7614 9.28711 25.1092C9.28711 33.457 16.0766 40.2465 24.4244 40.2465C29.6554 40.2465 34.281 37.5764 37.0007 33.5265C36.425 33.2188 35.889 32.8615 35.3927 32.4545" fill="#92B4EA"/>
<path d="M19.2651 23.8288C19.7714 21.2182 21.8459 19.5109 24.5954 19.5109C27.5038 19.5109 29.1416 21.5855 29.5684 23.8288H19.2651ZM24.5954 16.9103C19.8806 16.9103 16.4561 20.3546 16.4561 25.0993C16.4561 29.844 19.9302 33.2883 24.7046 33.2883C27.6924 33.2883 30.1938 31.988 31.5636 29.7149L31.8812 29.1988L29.5386 27.819L29.2409 28.365C28.4468 29.8241 26.7593 30.6976 24.7344 30.6976C21.9551 30.6976 19.8309 29.0201 19.2751 26.4691H32.3477V25.8636C32.3477 25.7643 32.3477 25.6552 32.3576 25.5559C32.3576 25.4269 32.3775 25.2978 32.3775 25.1688C32.3775 23.0148 31.633 20.98 30.293 19.4514C28.8537 17.8136 26.8288 16.9202 24.5954 16.9202" fill="#000A1C"/>
<path d="M41.5979 30.6877C38.4811 30.6877 36.0393 28.236 36.0393 25.0993C36.0393 21.9627 38.4811 19.5109 41.5979 19.5109C44.7147 19.5109 47.1565 21.9627 47.1565 25.0993C47.1565 28.236 44.7147 30.6877 41.5979 30.6877ZM47.1565 19.3025C45.747 17.754 43.7618 16.9004 41.5085 16.9004C36.9425 16.9004 33.3691 20.5035 33.3691 25.0894C33.3691 29.6753 36.9425 33.2784 41.5085 33.2784C43.7717 33.2784 45.747 32.4248 47.1565 30.8763V32.9509H49.8167V11.4113H47.1565V19.3025Z" fill="#000A1C"/>
<path d="M58.7206 23.8486C56.5865 23.3027 55.2862 22.9056 55.2862 21.6351C55.2862 20.166 56.7354 19.501 58.1747 19.501C59.6934 19.501 60.8746 20.1859 61.3411 21.3373L61.5992 21.9825L63.8921 20.6723L63.6737 20.176C62.7705 18.1312 60.7158 16.9103 58.1747 16.9103C54.9586 16.9103 52.626 18.9054 52.626 21.645C52.626 24.9107 55.574 25.675 57.9464 26.2904C60.1103 26.8562 61.4404 27.2632 61.4404 28.5635C61.4404 30.1318 59.8125 30.6976 58.2938 30.6976C56.4277 30.6976 55.038 29.8936 54.5914 28.5536L54.3531 27.8488L52.0205 29.2087L52.1992 29.6852C53.0528 31.9483 55.3259 33.3082 58.2839 33.3082C61.7084 33.3082 64.0906 31.3627 64.0906 28.5734C64.0906 25.2383 61.1128 24.474 58.7206 23.8585" fill="#000A1C"/>
<path d="M70.7504 12.9497L68.0605 13.7438V17.2278H64.8643V19.8583H68.0605V28.7024C68.0605 30.2906 68.4873 31.4222 69.3509 32.1666C70.1052 32.8118 71.1475 33.1294 72.557 33.1294C73.1525 33.1294 73.8275 33.0699 74.562 32.9607L75.0782 32.8813V30.3998L74.4231 30.4593C72.8746 30.5983 71.6438 30.6678 71.1475 30.2112C70.8795 29.963 70.7405 29.4667 70.7405 28.7024V19.8583H75.0782V17.2278H70.7405V12.9497H70.7504Z" fill="#000A1C"/>
<path d="M78.313 23.8288C78.8192 21.2182 80.8938 19.5109 83.6433 19.5109C86.5516 19.5109 88.1894 21.5855 88.6163 23.8288H78.313ZM83.6433 16.9103C78.9284 16.9103 75.5039 20.3546 75.5039 25.0993C75.5039 29.844 78.978 33.2883 83.7525 33.2883C86.7402 33.2883 89.2416 31.988 90.6114 29.7149L90.929 29.1988L88.5865 27.819L88.2887 28.365C87.4946 29.8241 85.8072 30.6976 83.7823 30.6976C81.003 30.6976 78.8788 29.0201 78.3229 26.4691H91.3956V25.8636C91.3956 25.7643 91.3956 25.6552 91.4055 25.5559C91.4055 25.4269 91.4253 25.2978 91.4253 25.1688C91.4253 23.0148 90.6809 20.98 89.3409 19.4514C87.9016 17.8136 85.8767 16.9202 83.6433 16.9202" fill="#000A1C"/>
<path fill-rule="evenodd" clip-rule="evenodd" d="M96.2803 10.5377H93.6201V32.9707H96.2803V10.5377Z" fill="#000A1C"/>
<path fill-rule="evenodd" clip-rule="evenodd" d="M102.216 10.5377H99.5557V32.9707H102.216V10.5377Z" fill="#000A1C"/>
<path d="M112.748 30.6877C109.631 30.6877 107.189 28.2359 107.189 25.0993C107.189 21.9627 109.631 19.5109 112.748 19.5109C115.865 19.5109 118.277 21.9627 118.277 25.0993C118.277 28.2359 115.845 30.6877 112.748 30.6877ZM118.277 19.2727C116.847 17.754 114.872 16.9103 112.629 16.9103C108.063 16.9103 104.489 20.5134 104.489 25.0993C104.489 29.6851 108.063 33.2883 112.629 33.2883C114.872 33.2883 116.847 32.4446 118.277 30.9259V32.9707H120.967V17.2279H118.277V19.2727Z" fill="#000A1C"/>
<path d="M131.15 17.0293C129.373 17.0293 127.934 17.5951 126.901 18.6671V17.2278H124.241V32.9706H126.901V24.2853C126.901 19.9575 130.157 19.6299 131.15 19.6299H131.755V17.0293H131.15Z" fill="#000A1C"/>
<path d="M135.955 15.5306C134.823 15.5306 133.91 16.4438 133.91 17.5754C133.91 18.707 134.823 19.6202 135.955 19.6202C137.087 19.6202 138 18.707 138 17.5754C138 16.4438 137.087 15.5306 135.955 15.5306ZM135.955 19.372C134.972 19.372 134.168 18.568 134.168 17.5754C134.168 16.5828 134.972 15.7788 135.955 15.7788C136.938 15.7788 137.742 16.5828 137.742 17.5754C137.742 18.568 136.938 19.372 135.955 19.372Z" fill="#000A1C"/>
<path d="M136.749 17.1883C136.749 16.8508 136.5 16.5332 135.964 16.5332H135.329V18.6475H135.607V17.8534H136.044L136.49 18.6475H136.788L136.302 17.7938C136.59 17.7045 136.729 17.4762 136.729 17.1883H136.749ZM135.984 17.5754H135.617V16.7814H135.984C136.312 16.7814 136.471 16.9402 136.471 17.1883C136.471 17.4365 136.312 17.5854 135.984 17.5854" fill="#000A1C"/>
</svg>